<svg id="Layer_1" enable-background="new 0 0 512 512" height="512" viewBox="0 0 512 512" width="512" xmlns="http://www.w3.org/2000/svg"><path d="m476.917 250.917c5.159 0 10.233.869 15.082 2.584 4.59 1.625 9.685.918 13.661-1.894 3.977-2.813 6.34-7.379 6.34-12.248v-103.859c0-30.419-24.748-55.166-55.166-55.166h-85.587c.112-1.688.17-3.384.17-5.084 0-41.493-33.757-75.25-75.25-75.25s-75.25 33.757-75.25 75.25c0 1.7.057 3.396.17 5.084h-85.587c-30.418 0-55.166 24.747-55.166 55.166v85.588c-1.688-.113-3.384-.171-5.084-.171-41.493 0-75.25 33.757-75.25 75.25s33.757 75.25 75.25 75.25c1.7 0 3.396-.058 5.084-.171v85.588c0 30.419 24.748 55.166 55.166 55.166h103.859.02c8.284 0 15-6.716 15-15 0-2.009-.395-3.924-1.109-5.675-1.562-4.644-2.353-9.487-2.353-14.408 0-24.951 20.299-45.25 45.25-45.25s45.25 20.299 45.25 45.25c0 5.159-.87 10.233-2.584 15.082-1.624 4.591-.917 9.685 1.894 13.661 2.813 3.976 7.379 6.34 12.248 6.34h103.859c30.418 0 55.166-24.747 55.166-55.166v-103.859c0-4.869-2.363-9.437-6.34-12.248s-9.07-3.519-13.661-1.894c-4.849 1.715-9.923 2.584-15.082 2.584-24.951 0-45.25-20.299-45.25-45.25s20.299-45.25 45.25-45.25zm0 120.5c1.701 0 3.396-.058 5.083-.17v85.587c0 13.877-11.29 25.166-25.166 25.166h-85.587c.114-1.688.17-3.383.17-5.083 0-41.493-33.757-75.25-75.25-75.25s-75.25 33.757-75.25 75.25c0 1.7.057 3.396.17 5.083h-85.587c-13.876 0-25.166-11.289-25.166-25.166v-103.859c0-4.869-2.364-9.437-6.34-12.248-3.977-2.812-9.07-3.519-13.661-1.894-4.85 1.715-9.925 2.584-15.083 2.584-24.951 0-45.25-20.299-45.25-45.25s20.299-45.25 45.25-45.25c5.159 0 10.234.869 15.083 2.584 4.59 1.624 9.684.917 13.661-1.894 3.976-2.813 6.34-7.379 6.34-12.248v-103.859c0-13.877 11.29-25.166 25.166-25.166h103.859c4.87 0 9.437-2.364 12.249-6.34 2.811-3.977 3.518-9.07 1.894-13.661-1.714-4.849-2.584-9.923-2.584-15.083 0-24.951 20.299-45.25 45.25-45.25s45.25 20.299 45.25 45.25c0 5.16-.87 10.234-2.584 15.083-1.624 4.591-.917 9.685 1.894 13.661 2.813 3.976 7.379 6.34 12.248 6.34h103.859c13.876 0 25.166 11.289 25.166 25.166v85.587c-1.688-.112-3.382-.17-5.083-.17-41.493 0-75.25 33.757-75.25 75.25s33.756 75.25 75.249 75.25z"/></svg>